<?xml version="1.0" encoding="utf-8"?>
<!-- Generator: Adobe Illustrator 15.1.0, SVG Export Plug-In . SVG Version: 6.00 Build 0)  -->
<!DOCTYPE svg PUBLIC "-//W3C//DTD SVG 1.1//EN" "http://www.w3.org/Graphics/SVG/1.1/DTD/svg11.dtd">
<svg version="1.1" id="Layer_1" xmlns="http://www.w3.org/2000/svg" xmlns:xlink="http://www.w3.org/1999/xlink" x="0px" y="0px"
	 width="398.78px" height="398.781px" viewBox="0 0 398.78 398.781" enable-background="new 0 0 398.78 398.781"
	 xml:space="preserve">
<path fill="#E30613" d="M116.471,155.627c0-0.014,0-0.028,0-0.042"/>
<path fill="#E31119" d="M214.595,113.36c0-0.014,0-0.029,0-0.043"/>
<path fill="#E31119" d="M146.737,94.182"/>
<path fill="#E31119" d="M180.16,226.075c-43.413-1.03-90.372-13.756-89.226-62.829c0,0,1.837-77.428,2.006-84.559
	c0.124-5.221-10.456-3.133-20.715-3.377c-20.294-0.481,0.686-60.062,0.686-60.062s50.617-8.961,71.214,0.778
	c2.545,1.203,5.032,3.91,1.455,17.037c-8.184,30.035-10.436,48.207-12.648,65.705C128.521,133.66,127.381,207.682,180.16,226.075z"
	/>
<circle fill="#27388B" cx="209.114" cy="113.746" r="53.253"/>
<path fill="#E31119" d="M217.376,8.569c0,0-42.987-2.391-58.49,21.865c0,0-14.449,23.982-18.397,63.748
	c-3.943,39.706-1.643,72.919,14.455,101.83c16.098,28.91,53.175,30.524,53.175,30.524c62.503,1.483,111.707-47.625,113.189-110.128
	C322.791,53.906,279.879,10.053,217.376,8.569z M209.114,174.488c-33.547,0-60.742-27.195-60.742-60.742
	s27.195-60.742,60.742-60.742s60.741,27.195,60.741,60.742S242.661,174.488,209.114,174.488z"/>
<g>
	<g>
		<path d="M44.007,265.016l13.698,4.14c-0.92,3.842-2.37,7.051-4.348,9.627c-1.979,2.576-4.434,4.52-7.366,5.831
			c-2.933,1.311-6.665,1.967-11.196,1.967c-5.498,0-9.988-0.8-13.473-2.396c-3.485-1.598-6.493-4.407-9.022-8.431
			c-2.531-4.022-3.795-9.172-3.795-15.447c0-8.367,2.226-14.797,6.676-19.291s10.748-6.741,18.89-6.741
			c6.371,0,11.38,1.288,15.026,3.864s6.354,6.533,8.125,11.869l-13.801,3.07c-0.483-1.541-0.989-2.668-1.518-3.381
			c-0.875-1.196-1.944-2.116-3.209-2.761c-1.265-0.644-2.68-0.966-4.244-0.966c-3.542,0-6.257,1.425-8.143,4.273
			c-1.427,2.114-2.14,5.434-2.14,9.959c0,5.606,0.851,9.449,2.553,11.527c1.702,2.08,4.094,3.119,7.177,3.119
			c2.99,0,5.25-0.839,6.78-2.519C42.207,270.652,43.317,268.213,44.007,265.016z"/>
		<path d="M96.392,277.368H78.647l-2.465,8.35H60.224l19.011-50.581h17.049l19.007,50.581H98.923L96.392,277.368z M93.15,266.43
			l-5.583-18.183l-5.525,18.183H93.15z"/>
	</g>
	<g>
		<path d="M120.362,235.136h14.595l19.045,27.984v-27.984h14.733v50.581h-14.733l-18.942-27.772v27.772h-14.698V235.136z"/>
	</g>
	<g>
		<path d="M209.526,277.368h-17.745l-2.465,8.35h-15.958l19.011-50.581h17.048l19.008,50.581h-16.367L209.526,277.368z
			 M206.284,266.43l-5.583-18.183l-5.524,18.183H206.284z"/>
		<path d="M233.393,235.136h15.63v38.126h24.394v12.455h-40.023V235.136z"/>
		<path d="M333.657,234.274v51.443h-14.215v-33.709c-2.301,1.748-4.525,3.163-6.676,4.244c-2.151,1.081-4.848,2.116-8.092,3.104
			v-11.523c4.785-1.541,8.5-3.393,11.145-5.555s4.715-4.831,6.211-8.005H333.657z"/>
		<path d="M348.942,260.22c0-9.614,1.73-16.343,5.192-20.185c3.462-3.841,8.735-5.762,15.819-5.762c3.404,0,6.199,0.42,8.385,1.26
			c2.185,0.84,3.968,1.932,5.348,3.277c1.381,1.346,2.467,2.76,3.261,4.244c0.794,1.483,1.432,3.215,1.915,5.192
			c0.942,3.772,1.414,7.706,1.414,11.8c0,9.178-1.553,15.895-4.658,20.149c-3.104,4.256-8.453,6.384-16.043,6.384
			c-4.256,0-7.694-0.68-10.316-2.036c-2.623-1.357-4.773-3.347-6.452-5.969c-1.22-1.863-2.169-4.411-2.847-7.643
			C349.281,267.702,348.942,264.13,348.942,260.22z M362.882,260.254c0,6.44,0.568,10.84,1.707,13.197
			c1.139,2.358,2.789,3.536,4.951,3.536c1.426,0,2.662-0.5,3.709-1.5c1.047-1.001,1.817-2.582,2.313-4.744
			c0.494-2.162,0.742-5.532,0.742-10.109c0-6.717-0.57-11.23-1.709-13.543c-1.139-2.312-2.846-3.467-5.123-3.467
			c-2.324,0-4.002,1.179-5.037,3.536C363.399,249.519,362.882,253.883,362.882,260.254z"/>
	</g>
</g>
<g>
	<g>
		<path d="M37.166,343.54v-44.612H20.5v-5.969h40.092v5.969H43.859v44.612H37.166z"/>
		<path d="M100.65,292.958h6.693v29.224c0,5.084-0.575,9.121-1.725,12.111c-1.15,2.99-3.226,5.422-6.228,7.297
			c-3.002,1.875-6.941,2.812-11.817,2.812c-4.739,0-8.614-0.816-11.627-2.449c-3.014-1.633-5.164-3.996-6.452-7.091
			c-1.289-3.093-1.932-7.319-1.932-12.68v-29.224h6.693v29.189c0,4.394,0.408,7.631,1.225,9.713s2.22,3.687,4.209,4.813
			c1.989,1.128,4.422,1.69,7.297,1.69c4.922,0,8.43-1.115,10.523-3.347c2.093-2.23,3.14-6.521,3.14-12.869V292.958z"/>
		<path d="M154.578,325.805l6.693,1.69c-1.403,5.498-3.928,9.69-7.573,12.576c-3.646,2.888-8.103,4.33-13.37,4.33
			c-5.452,0-9.885-1.109-13.301-3.329c-3.416-2.22-6.016-5.435-7.798-9.644c-1.783-4.209-2.674-8.729-2.674-13.56
			c0-5.267,1.006-9.862,3.019-13.784c2.012-3.921,4.876-6.9,8.591-8.936c3.714-2.036,7.803-3.054,12.266-3.054
			c5.06,0,9.316,1.288,12.766,3.864s5.854,6.199,7.211,10.868l-6.59,1.553c-1.173-3.68-2.876-6.359-5.106-8.039
			c-2.231-1.679-5.038-2.519-8.419-2.519c-3.888,0-7.137,0.932-9.747,2.795c-2.611,1.862-4.445,4.364-5.503,7.504
			c-1.059,3.14-1.587,6.378-1.587,9.713c0,4.301,0.626,8.056,1.88,11.265c1.253,3.209,3.203,5.606,5.849,7.194
			c2.645,1.587,5.508,2.38,8.591,2.38c3.749,0,6.923-1.08,9.523-3.243C151.898,333.27,153.658,330.061,154.578,325.805z"/>
		<path d="M202.71,292.958h6.693v29.224c0,5.084-0.576,9.121-1.726,12.111c-1.15,2.99-3.226,5.422-6.228,7.297
			s-6.941,2.812-11.817,2.812c-4.739,0-8.614-0.816-11.627-2.449c-3.014-1.633-5.164-3.996-6.452-7.091
			c-1.289-3.093-1.933-7.319-1.933-12.68v-29.224h6.694v29.189c0,4.394,0.408,7.631,1.225,9.713s2.22,3.687,4.209,4.813
			c1.989,1.128,4.422,1.69,7.297,1.69c4.922,0,8.43-1.115,10.523-3.347c2.093-2.23,3.14-6.521,3.14-12.869V292.958z"/>
		<path d="M220.341,343.54v-50.581h10.074l11.973,35.813c1.104,3.336,1.908,5.831,2.415,7.487c0.575-1.84,1.472-4.542,2.691-8.107
			l12.11-35.193h9.006v50.581h-6.453v-42.335L247.46,343.54h-6.039l-14.629-43.06v43.06H220.341z"/>
		<path d="M273.854,343.54l19.425-50.581h7.211l20.702,50.581h-7.625l-5.9-15.319h-21.15l-5.555,15.319H273.854z M288.448,322.769
			h17.148l-5.279-14.008c-1.609-4.256-2.807-7.752-3.588-10.489c-0.645,3.243-1.553,6.464-2.726,9.661L288.448,322.769z"/>
		<path d="M326.471,343.54v-50.581h6.866l26.566,39.713v-39.713h6.418v50.581h-6.865l-26.568-39.747v39.747H326.471z"/>
	</g>
</g>
</svg>
